<mxfile host="app.diagrams.net" modified="2023-12-01T10:11:34.321Z" agent="Mozilla/5.0 (Windows NT 10.0; Win64; x64; rv:120.0) Gecko/20100101 Firefox/120.0" etag="r7UZRet1N4tjVshipHlz" version="22.1.5" type="device">
  <diagram name="Seite-1" id="x678enBSlLbwn5Ri4ikG">
    <mxGraphModel dx="1050" dy="566" grid="1" gridSize="10" guides="1" tooltips="1" connect="1" arrows="1" fold="1" page="1" pageScale="1" pageWidth="827" pageHeight="1169" math="0" shadow="0">
      <root>
        <mxCell id="0" />
        <mxCell id="1" parent="0" />
        <mxCell id="Ri5avJItuvFf_THf25Q1-1" value="Thermometer" style="swimlane;fontStyle=1;align=center;verticalAlign=top;childLayout=stackLayout;horizontal=1;startSize=26;horizontalStack=0;resizeParent=1;resizeParentMax=0;resizeLast=0;collapsible=1;marginBottom=0;" parent="1" vertex="1">
          <mxGeometry x="40" y="40" width="320" height="86" as="geometry" />
        </mxCell>
        <mxCell id="Ri5avJItuvFf_THf25Q1-2" value="temperatur : GradCelsius" style="text;strokeColor=none;fillColor=none;align=left;verticalAlign=top;spacingLeft=4;spacingRight=4;overflow=hidden;rotatable=0;points=[[0,0.5],[1,0.5]];portConstraint=eastwest;" parent="Ri5avJItuvFf_THf25Q1-1" vertex="1">
          <mxGeometry y="26" width="320" height="26" as="geometry" />
        </mxCell>
        <mxCell id="Ri5avJItuvFf_THf25Q1-3" value="" style="line;strokeWidth=1;fillColor=none;align=left;verticalAlign=middle;spacingTop=-1;spacingLeft=3;spacingRight=3;rotatable=0;labelPosition=right;points=[];portConstraint=eastwest;" parent="Ri5avJItuvFf_THf25Q1-1" vertex="1">
          <mxGeometry y="52" width="320" height="8" as="geometry" />
        </mxCell>
        <mxCell id="Ri5avJItuvFf_THf25Q1-4" value="berechneFahrenheit() : GradFahrenheit {isQuery}" style="text;strokeColor=none;fillColor=none;align=left;verticalAlign=top;spacingLeft=4;spacingRight=4;overflow=hidden;rotatable=0;points=[[0,0.5],[1,0.5]];portConstraint=eastwest;" parent="Ri5avJItuvFf_THf25Q1-1" vertex="1">
          <mxGeometry y="60" width="320" height="26" as="geometry" />
        </mxCell>
      </root>
    </mxGraphModel>
  </diagram>
</mxfile>
